HIERARCHY
ROOT Hips
{
	OFFSET 0.00 0.00 0.00
	CHANNELS 6 Xposition Yposition Zposition Zrotation Xrotation Yrotation
	JOINT Spine
	{
		OFFSET 0.00 10.00 0.00
		CHANNELS 3 Zrotation Xrotation Yrotation
		JOINT Spine1
		{
			OFFSET 0.00 10.00 0.00
			CHANNELS 3 Zrotation Xrotation Yrotation
			JOINT Spine2
			{
				OFFSET 0.00 10.00 0.00
				CHANNELS 3 Zrotation Xrotation Yrotation
				JOINT Neck
				{
					OFFSET 0.00 10.00 0.00
					CHANNELS 3 Zrotation Xrotation Yrotation
					JOINT Head
					{
						OFFSET 0.00 10.00 0.00
						CHANNELS 3 Zrotation Xrotation Yrotation
						End Site
						{
							OFFSET 0.00 10.00 0.00
						}
					}
				}
				JOINT LeftArm
				{
					OFFSET 15.00 0.00 0.00
					CHANNELS 3 Zrotation Xrotation Yrotation
					JOINT LeftForeArm
					{
						OFFSET 25.00 0.00 0.00
						CHANNELS 3 Zrotation Xrotation Yrotation
						JOINT LeftHand
						{
							OFFSET 20.00 0.00 0.00
							CHANNELS 3 Zrotation Xrotation Yrotation
							End Site
							{
								OFFSET 10.00 0.00 0.00
							}
						}
					}
				}
				JOINT RightArm
				{
					OFFSET -15.00 0.00 0.00
					CHANNELS 3 Zrotation Xrotation Yrotation
					JOINT RightForeArm
					{
						OFFSET -25.00 0.00 0.00
						CHANNELS 3 Zrotation Xrotation Yrotation
						JOINT RightHand
						{
							OFFSET -20.00 0.00 0.00
							CHANNELS 3 Zrotation Xrotation Yrotation
							End Site
							{
								OFFSET -10.00 0.00 0.00
							}
						}
					}
				}
			}
		}
	}
	JOINT LeftUpLeg
	{
		OFFSET 8.00 -15.00 0.00
		CHANNELS 3 Zrotation Xrotation Yrotation
		JOINT LeftLeg
		{
			OFFSET 0.00 -35.00 0.00
			CHANNELS 3 Zrotation Xrotation Yrotation
			JOINT LeftFoot
			{
				OFFSET 0.00 -35.00 0.00
				CHANNELS 3 Zrotation Xrotation Yrotation
				JOINT LeftToeBase
				{
					OFFSET 0.00 -5.00 10.00
					CHANNELS 3 Zrotation Xrotation Yrotation
					End Site
					{
						OFFSET 0.00 -5.00 10.00
					}
				}
			}
		}
	}
	JOINT RightUpLeg
	{
		OFFSET -8.00 -15.00 0.00
		CHANNELS 3 Zrotation Xrotation Yrotation
		JOINT RightLeg
		{
			OFFSET 0.00 -35.00 0.00
			CHANNELS 3 Zrotation Xrotation Yrotation
			JOINT RightFoot
			{
				OFFSET 0.00 -35.00 0.00
				CHANNELS 3 Zrotation Xrotation Yrotation
				JOINT RightToeBase
				{
					OFFSET 0.00 -5.00 10.00
					CHANNELS 3 Zrotation Xrotation Yrotation
					End Site
					{
						OFFSET 0.00 -5.00 10.00
					}
				}
			}
		}
	}
}
MOTION
Frames: 11
Frame Time: 0.034483
-0.0579 0.1424 -0.1503 0.9731 -0.1295 15.1570 0.6014 -2.8808 -0.0151 0.6014 -2.8808 -0.0151 0.6014 -2.8808 -0.0151 -4.4821 17.7605 4.1641 2.0838 11.1117 -25.9413 -34.4038 -9.2765 -29.3692 77.0564 54.4329 -65.7170 124.3553 68.5952 -39.5944 56.4703 -20.2740 36.8312 0.4697 -0.2831 62.1504 -111.6591 79.5738 58.9615 10.1908 -9.7951 -0.8755 12.5762 17.3473 1.9261 -20.0172 21.4756 -3.8336 -5.2449 24.0024 24.3183 -3.5858 -1.1188 0.0350 -14.1364 20.3748 -2.5529 -15.9059 -38.2698 5.5501 0.8653 2.8630 -33.6269
-0.0631 0.1430 -0.1470 0.9491 -0.1216 14.6048 0.6257 -2.3302 -0.0127 0.6257 -2.3302 -0.0127 0.6257 -2.3302 -0.0127 -4.6606 18.4105 4.2810 2.1977 11.4290 -26.4876 -35.2824 -9.4754 -29.2140 75.3999 52.9916 -65.6418 121.8547 67.4578 -40.7289 58.8315 -19.2297 33.4459 -1.0116 0.5336 55.6180 -109.9001 75.1680 56.7311 9.4284 -9.9984 -0.8266 13.4118 15.4031 1.8219 -20.3378 18.5928 -3.3636 -4.6010 26.1663 19.6149 -3.6991 -0.9011 0.0291 -14.0848 19.5804 -2.4423 -15.6210 -37.8708 5.3885 1.5694 4.9048 -35.4685
-0.0639 0.1434 -0.1471 0.9193 -0.1178 14.6063 0.7418 -2.0923 -0.0135 0.7418 -2.0923 -0.0135 0.7418 -2.0923 -0.0135 -4.9470 18.6477 4.5253 2.2982 12.1950 -26.6688 -35.4266 -9.5198 -29.2240 75.3078 52.9039 -65.6284 121.4750 66.9626 -40.6695 59.4368 -19.2249 33.0513 -3.5852 1.9500 57.0727 -109.5248 74.3661 56.3703 9.1542 -9.9424 -0.7979 13.6428 15.3888 1.8518 -20.4296 18.6245 -3.3849 -4.2600 26.5928 17.8876 -3.9017 -0.9036 0.0308 -14.1529 19.1757 -2.4026 -15.6231 -37.8129 5.3804 1.9709 5.8654 -37.1204
-0.0656 0.1435 -0.1472 0.8312 -0.1070 14.6756 0.7916 -1.8851 -0.0130 0.7916 -1.8851 -0.0130 0.7916 -1.8851 -0.0130 -5.0723 19.1753 4.5973 2.4306 13.1568 -26.9081 -35.5650 -9.4280 -28.8374 74.5368 52.8865 -66.3379 122.1030 68.8465 -41.5203 59.8469 -18.7509 32.0123 -6.4293 3.5663 57.9988 -108.9710 71.8587 54.6934 9.0584 -9.7785 -0.7765 13.4328 14.9013 1.7646 -20.7660 17.6839 -3.2653 -4.5069 26.1132 19.2606 -4.3790 -0.8781 0.0336 -13.9957 19.1010 -2.3662 -15.4607 -37.7290 5.3112 2.0327 5.9865 -37.4825
-0.0678 0.1445 -0.1466 0.7125 -0.0924 14.7803 0.8880 -1.8927 -0.0147 0.8880 -1.8927 -0.0147 0.8880 -1.8927 -0.0147 -5.2901 19.7776 4.7444 2.6503 14.4462 -27.4106 -36.3047 -9.3647 -28.0526 74.1669 52.7472 -66.5297 121.9049 68.6454 -41.5321 59.9510 -18.0627 30.8137 -7.5231 4.1526 57.7464 -109.1122 71.5412 54.2996 8.9643 -9.8276 -0.7723 13.4089 13.5779 1.6035 -20.9634 15.9915 -2.9772 -4.2765 25.2115 18.9572 -4.5386 -0.9438 0.0374 -13.9567 18.4368 -2.2761 -15.3000 -37.9426 5.2874 2.4645 7.3239 -37.1535
-0.0683 0.1451 -0.1463 0.6921 -0.0906 14.9080 0.8876 -1.8351 -0.0142 0.8876 -1.8351 -0.0142 0.8876 -1.8351 -0.0142 -5.4211 20.2048 4.8256 2.8846 14.9843 -28.3277 -36.6618 -9.1406 -27.1290 71.7034 51.2165 -67.1125 122.5747 70.7163 -42.4801 60.0192 -17.9245 30.5451 -8.3779 4.5994 57.4726 -108.5998 70.6013 53.9332 8.8157 -9.8794 -0.7634 13.5152 12.8757 1.5320 -20.9966 15.3436 -2.8598 -4.4558 25.3064 19.6624 -4.7297 -1.1262 0.0465 -14.0281 17.7418 -2.2002 -15.2026 -38.1760 5.2881 2.5966 7.7918 -36.8135
-0.0688 0.1454 -0.1481 0.6427 -0.0844 14.9620 0.8980 -1.9077 -0.0150 0.8980 -1.9077 -0.0150 0.8980 -1.9077 -0.0150 -5.5987 20.6525 4.9447 3.2396 16.1290 -29.4182 -37.8526 -8.6556 -24.8923 64.4250 47.1452 -69.4074 123.5031 76.2814 -45.7499 60.9002 -17.9231 30.0321 -11.6826 6.5830 58.6856 -109.4637 69.2652 52.0675 8.7855 -9.9571 -0.7668 13.2699 12.3672 1.4441 -21.7354 14.9801 -2.8918 -4.4785 24.8589 20.1206 -4.8970 -1.1962 0.0512 -14.1739 17.7614 -2.2258 -15.4158 -38.0555 5.3449 2.5776 7.7470 -36.7605
-0.0691 0.1458 -0.1494 0.6003 -0.0791 15.0191 0.9030 -1.9387 -0.0153 0.9030 -1.9387 -0.0153 0.9030 -1.9387 -0.0153 -5.7097 20.9336 5.0179 3.4279 16.6918 -29.9704 -38.6881 -8.5672 -24.0883 59.4990 43.9950 -70.5073 122.9477 77.2498 -46.9501 61.2426 -17.9172 29.8273 -13.3535 7.6533 59.4861 -109.6272 68.8215 51.5577 8.7700 -10.0037 -0.7691 13.0172 12.1891 1.3958 -22.1949 14.9191 -2.9423 -4.6239 24.3655 21.1847 -4.9918 -1.2259 0.0534 -14.2394 17.7114 -2.2298 -15.5013 -38.0499 5.3740 2.5476 7.6835 -36.6421
-0.0695 0.1460 -0.1513 0.5770 -0.0751 14.8227 0.8959 -1.4285 -0.0112 0.8959 -1.4285 -0.0112 0.8959 -1.4285 -0.0112 -5.8131 21.4181 5.0654 3.7063 16.5435 -31.3490 -38.8210 -8.7245 -24.4309 53.8962 40.7713 -72.3309 123.2365 80.9955 -49.5382 61.2231 -17.6217 29.3602 -13.8782 7.9753 59.6065 -109.0798 68.6808 51.8947 8.7689 -10.2899 -0.7911 12.9214 11.9102 1.3535 -22.1852 14.7940 -2.9161 -4.4117 23.5172 20.9673 -5.2361 -1.2089 0.0553 -14.2687 17.7080 -2.2340 -15.4760 -38.0590 5.3665 2.5474 7.6881 -36.6184
-0.0703 0.1457 -0.1516 0.5295 -0.0669 14.4080 0.7908 -1.0957 -0.0076 0.7908 -1.0957 -0.0076 0.7908 -1.0957 -0.0076 -5.7984 21.8100 5.0179 3.9808 16.1443 -32.8971 -38.6380 -7.9943 -22.5456 47.5425 36.4447 -73.5522 123.1353 80.8080 -49.4858 61.6019 -15.7369 26.1040 -14.5281 7.9928 57.4542 -106.0485 64.0648 50.4456 8.8407 -10.4076 -0.8067 12.8811 11.1990 1.2682 -22.4488 13.8713 -2.7657 -4.0824 23.4689 19.4725 -5.7744 -1.1279 0.0569 -14.2076 17.8511 -2.2426 -15.7607 -37.5732 5.3914 2.6823 7.7030 -38.3512
-0.0749 0.1458 -0.1463 0.4971 -0.0589 13.5036 0.3762 -1.6430 -0.0054 0.3762 -1.6430 -0.0054 0.3762 -1.6430 -0.0054 -5.3122 21.4922 4.6228 4.0773 15.4542 -33.8814 -39.3952 -8.0173 -22.1510 29.2678 21.9237 -73.1350 121.1466 79.6922 -50.4171 62.6602 -13.0591 21.2978 -14.1058 7.0958 53.2348 -104.5854 61.8607 49.7111 8.9310 -10.8014 -0.8460 13.0143 9.1344 1.0441 -22.5265 11.5453 -2.3068 -3.4899 22.7186 17.2457 -5.9716 -1.3695 0.0714 -14.0972 17.4747 -2.1773 -15.6081 -37.9108 5.3901 2.2680 6.5283 -38.2816
